# xmcd
#
# Track frame offsets: 
#        150
#        12170
#        26615
#        40995
#        56340
#
# Disc length: 988 seconds
#
# Revision: 3
# Processed by: cddbd v1.5.2PL0 Copyright (c) Steve Scherf et al.
# Submitted via: ExactAudioCopy v0.95b3
#
DISCID=3303da05
DTITLE=Lucinda Williams - Passionate Kisses
DYEAR=1900
DGENRE=country
TTITLE0=Passionate Kisses
TTITLE1=Nothing in Rambling
TTITLE2=Goin' Back Home
TTITLE3=Disgusted
TTITLE4=Side of the Road
EXTD=
EXTT0=
EXTT1=
EXTT2=
EXTT3=
EXTT4=
PLAYORDER=
